# xmcd CD database file
#
# Track frame offsets:
#	150
#	12983
#	27495
#	43173
#	57232
#	68721
#	79076
#	90017
#	109201
#	120600
#	132925
#	144301
#	164599
#	180310
#	189304
#	204309
#	217642
#	233433
#
# Disc length: 3306 seconds
#
# Revision: 1
# Processed by: cddbd v1.5.2PL0 Copyright (c) Steve Scherf et al.
# Submitted via: CDex 1.70beta2
#
DISCID=e30ce812
DTITLE=Elisa Sedioli and Vociferando Band - LASTREPARZIRIA LIVE
DYEAR=1900
DGENRE=Jazz
TTITLE0=Java Jive
TTITLE1=Route 66
TTITLE2=Fever
TTITLE3=Baciami Piccina
TTITLE4=Non So Dir Ti Voglio Bene
TTITLE5=Sixteen Tons
TTITLE6=Cruella De Vil
TTITLE7=Here, There and Everywhere
TTITLE8=Donna
TTITLE9=Un Bacio a Mezzanotte
TTITLE10=Operator
TTITLE11=Bewhitched
TTITLE12=Raggio di Sole
TTITLE13=Pallida Luna
TTITLE14=Singing in The Rain
TTITLE15=Cheek To Cheek
TTITLE16=La Stre Par Ziria
TTITLE17=Fevra
EXTD=
EXTT0=
EXTT1=
EXTT2=
EXTT3=
EXTT4=
EXTT5=
EXTT6=
EXTT7=
EXTT8=
EXTT9=
EXTT10=
EXTT11=
EXTT12=
EXTT13=
EXTT14=
EXTT15=
EXTT16=
EXTT17=
PLAYORDER=
